<svg width="44" height="46" viewBox="0 0 44 46" fill="none" xmlns="http://www.w3.org/2000/svg">
<path d="M36.6667 7.6665H32.7449C31.9875 7.6665 31.6088 7.6665 31.3364 7.88146C31.0639 8.09643 30.9759 8.46474 30.7997 9.20136L30.0675 12.2635C29.7152 13.7367 29.539 14.4733 28.9942 14.9032C28.4493 15.3332 27.6919 15.3332 26.1772 15.3332H25.6667" stroke="#222222" stroke-width="2" stroke-linecap="round"/>
<path d="M11 32.5835H30.2631C31.5139 32.5835 32.1394 32.5835 32.439 32.1735C32.7386 31.7635 32.5486 31.1677 32.1686 29.9759L32.0546 29.6184C31.6264 28.2754 31.4123 27.6039 30.8852 27.2187C30.358 26.8335 29.6532 26.8335 28.2436 26.8335H18.3333" stroke="#222222" stroke-width="2" stroke-linecap="round" stroke-linejoin="round"/>
<path d="M14.0939 26.8335H27.627C28.61 26.8335 29.4473 26.1191 29.6021 25.1484L30.89 17.0696C31.0352 16.1585 30.3313 15.3335 29.4087 15.3335H8.92016C8.18443 15.3335 7.70059 16.1012 8.01802 16.765L12.2896 25.6964C12.6219 26.3912 13.3237 26.8335 14.0939 26.8335Z" stroke="#222222" stroke-width="2" stroke-linecap="round"/>
<ellipse cx="1.83333" cy="1.91667" rx="1.83333" ry="1.91667" transform="matrix(-1 0 0 1 14.6667 36.4165)" fill="#222222"/>
<ellipse cx="1.83333" cy="1.91667" rx="1.83333" ry="1.91667" transform="matrix(-1 0 0 1 29.3333 36.4165)" fill="#222222"/>
</svg>
